<svg stroke="currentColor" fill="currentColor" stroke-width="0" viewBox="0 0 20 20" height="25" width="25" xmlns="http://www.w3.org/2000/svg" data-darkreader-inline-fill="" data-darkreader-inline-stroke="" style="--darkreader-inline-fill: currentColor; --darkreader-inline-stroke: currentColor;"><path fill-rule="evenodd" d="M3 5a1 1 0 011-1h12a1 1 0 110 2H4a1 1 0 01-1-1zM3 10a1 1 0 011-1h12a1 1 0 110 2H4a1 1 0 01-1-1zM3 15a1 1 0 011-1h12a1 1 0 110 2H4a1 1 0 01-1-1z" clip-rule="evenodd"></path></svg>